<svg width="36" height="37" viewBox="0 0 36 37" fill="none" xmlns="http://www.w3.org/2000/svg">
<path d="M36 32.3856C36 34.5774 34.209 36.3545 32 36.3545H4C1.791 36.3545 0 34.5774 0 32.3856V9.56447C0 7.37265 1.791 5.59558 4 5.59558H32C34.209 5.59558 36 7.37265 36 9.56447V32.3856Z" fill="#E0E7EC"/>
<path d="M23.657 19.6058H17.87C16.65 19.6058 16.197 18.8209 16.197 18.0579C16.197 17.273 16.626 16.51 17.87 16.51H26.054C27.208 16.51 27.682 17.5419 27.682 18.1254C27.682 18.5738 27.433 19.0451 27.162 19.6058L21.555 30.9122C20.922 32.1683 20.673 32.6158 19.656 32.6158C18.412 32.6158 17.779 31.6742 17.779 31.0233C17.779 30.7544 17.847 30.553 18.005 30.2385L23.657 19.6058ZM10.889 19.4867H10.389C9.30395 19.4867 8.85095 18.7614 8.85095 17.9983C8.85095 17.2125 9.41595 16.51 10.389 16.51H12.404C13.376 16.51 13.919 17.2056 13.919 18.1025V30.8675C13.919 31.9887 13.361 32.6168 12.389 32.6168C11.417 32.6168 10.889 31.9887 10.889 30.8675V19.4867Z" fill="#66757F"/>
<path d="M34 0.634521H30.723C30.895 0.927226 31 1.26359 31 1.62674C31 2.72215 30.104 3.61118 29 3.61118C27.896 3.61118 27 2.72215 27 1.62674C27 1.26359 27.105 0.927226 27.277 0.634521H8.723C8.895 0.927226 9 1.26359 9 1.62674C9 2.72215 8.104 3.61118 7 3.61118C5.896 3.61118 5 2.72215 5 1.62674C5 1.26359 5.105 0.927226 5.277 0.634521H2C0.896 0.634521 0 1.52355 0 2.61896V13.5334H36V2.61896C36 1.52355 35.104 0.634521 34 0.634521Z" fill="#DD2F45"/>
<path d="M13.182 5.20264C13.182 4.70653 13.502 4.42871 13.932 4.42871C14.361 4.42871 14.681 4.70653 14.681 5.20264V10.1806H16.46C16.97 10.1806 17.19 10.5577 17.18 10.895C17.16 11.2224 16.9 11.5489 16.46 11.5489H13.962C13.472 11.5489 13.182 11.2324 13.182 10.7363V5.20264ZM6.272 5.20264C6.272 4.70653 6.592 4.42871 7.022 4.42871C7.452 4.42871 7.772 4.70653 7.772 5.20264V8.66351C7.772 9.57635 8.361 10.2997 9.311 10.2997C10.22 10.2997 10.84 9.53666 10.84 8.66351V5.20264C10.84 4.70653 11.159 4.42871 11.589 4.42871C12.019 4.42871 12.339 4.70653 12.339 5.20264V8.74289C12.339 10.4088 10.959 11.6689 9.311 11.6689C7.642 11.6689 6.272 10.4287 6.272 8.74289V5.20264ZM5.49 9.56544C5.49 11.2314 4.421 11.668 3.511 11.668C2.822 11.668 1.672 11.4001 1.672 10.5368C1.672 10.2699 1.902 9.93256 2.232 9.93256C2.632 9.93256 2.982 10.2997 3.431 10.2997C3.991 10.2997 3.991 9.78373 3.991 9.46622V5.20264C3.991 4.70653 4.311 4.42871 4.74 4.42871C5.171 4.42871 5.49 4.70653 5.49 5.20264V9.56544Z" fill="#F5F8FA"/>
<path d="M32 10.5568C32 11.1045 32.447 11.549 33 11.549C33.553 11.549 34 11.1045 34 10.5568C34 10.0091 33.553 9.56456 33 9.56456C32.447 9.56456 32 10.0091 32 10.5568ZM32 7.58011C32 8.12782 32.447 8.57234 33 8.57234C33.553 8.57234 34 8.12782 34 7.58011C34 7.03241 33.553 6.58789 33 6.58789C32.447 6.58789 32 7.03241 32 7.58011ZM29 10.5568C29 11.1045 29.447 11.549 30 11.549C30.553 11.549 31 11.1045 31 10.5568C31 10.0091 30.553 9.56456 30 9.56456C29.447 9.56456 29 10.0091 29 10.5568ZM29 7.58011C29 8.12782 29.447 8.57234 30 8.57234C30.553 8.57234 31 8.12782 31 7.58011C31 7.03241 30.553 6.58789 30 6.58789C29.447 6.58789 29 7.03241 29 7.58011ZM26 10.5568C26 11.1045 26.447 11.549 27 11.549C27.553 11.549 28 11.1045 28 10.5568C28 10.0091 27.553 9.56456 27 9.56456C26.447 9.56456 26 10.0091 26 10.5568ZM26 7.58011C26 8.12782 26.447 8.57234 27 8.57234C27.553 8.57234 28 8.12782 28 7.58011C28 7.03241 27.553 6.58789 27 6.58789C26.447 6.58789 26 7.03241 26 7.58011ZM23 7.58011C23 8.12782 23.447 8.57234 24 8.57234C24.553 8.57234 25 8.12782 25 7.58011C25 7.03241 24.553 6.58789 24 6.58789C23.447 6.58789 23 7.03241 23 7.58011ZM23 10.5568C23 11.1045 23.447 11.549 24 11.549C24.553 11.549 25 11.1045 25 10.5568C25 10.0091 24.553 9.56456 24 9.56456C23.447 9.56456 23 10.0091 23 10.5568Z" fill="#F4ABBA"/>
</svg>
