<svg width="35" height="36" viewBox="0 0 35 36" fill="none" xmlns="http://www.w3.org/2000/svg">
<path d="M30 32C30 34.209 28.209 36 26 36H4C1.791 36 0 34.209 0 32V4C0 1.791 1.791 0 4 0H26C28.209 0 30 1.791 30 4V32Z" fill="#CCD6DD"/>
<path d="M26 24C26 24.553 25.553 25 25 25H5C4.448 25 4 24.553 4 24C4 23.447 4.448 23 5 23H25C25.553 23 26 23.447 26 24ZM10 28C10 28.553 9.552 29 9 29H5C4.448 29 4 28.553 4 28C4 27.447 4.448 27 5 27H9C9.552 27 10 27.447 10 28ZM26 8C26 8.552 25.553 9 25 9H5C4.448 9 4 8.552 4 8C4 7.448 4.448 7 5 7H25C25.553 7 26 7.448 26 8ZM26 12C26 12.553 25.553 13 25 13H5C4.448 13 4 12.553 4 12C4 11.447 4.448 11 5 11H25C25.553 11 26 11.447 26 12ZM26 16C26 16.553 25.553 17 25 17H5C4.448 17 4 16.553 4 16C4 15.447 4.448 15 5 15H25C25.553 15 26 15.447 26 16ZM26 20C26 20.553 25.553 21 25 21H5C4.448 21 4 20.553 4 20C4 19.447 4.448 19 5 19H25C25.553 19 26 19.447 26 20Z" fill="#99AAB5"/>
<path d="M30 6.27196C29.173 5.73696 28.163 5.69296 27.479 6.24896L26.687 6.89496L25.203 8.10596L25.1031 8.18596L22.727 10.124L10.8491 19.81C10.4121 20.167 10.056 21.029 9.67605 21.884C9.29805 22.734 8.70705 24.736 8.23305 26.275C8.08505 26.525 7.16805 28.121 7.68205 28.728C8.20205 29.343 10.008 28.738 10.2501 28.652C11.876 28.478 13.9811 28.279 14.898 28.072C15.8221 27.861 16.752 27.677 17.189 27.32C17.1971 27.314 17.199 27.302 17.206 27.297L29.064 17.631L29.8561 16.985L30 16.867V6.27196Z" fill="#66757F"/>
<path d="M17.145 22.526C17.145 22.526 15.871 20.645 15.028 19.973C14.356 19.13 12.479 17.857 12.479 17.857C12.031 17.411 11.288 17.377 10.85 17.814C10.413 18.252 10.057 19.18 9.67701 20.105C9.20501 21.251 8.40101 24.259 7.90901 25.857C7.82601 26.129 8.42601 25.407 8.41201 25.647C8.40201 25.834 8.43901 26.041 8.48601 26.228L8.34001 26.387L8.54801 26.454C8.57301 26.536 8.59801 26.608 8.61601 26.664L8.77501 26.518C8.96201 26.565 9.16901 26.602 9.35501 26.592C9.59501 26.578 8.87201 27.179 9.14501 27.095C10.743 26.602 13.752 25.799 14.897 25.327C15.821 24.946 16.751 24.591 17.188 24.153C17.627 23.718 17.594 22.975 17.145 22.526Z" fill="#D99E82"/>
<path d="M24.312 4.35098C23.436 5.22598 23.436 6.64398 24.312 7.51898L27.479 10.687C28.355 11.561 29.773 11.561 30.647 10.687L33.816 7.51898C34.69 6.64398 34.69 5.22598 33.816 4.35098L30.647 1.18298C29.773 0.307983 28.355 0.307983 27.479 1.18298L24.312 4.35098Z" fill="#EA596E"/>
<path d="M10.849 17.815L14.019 20.985L17.184 24.151L29.065 12.272L22.728 5.93604L10.849 17.815Z" fill="#FFCC4D"/>
<path d="M10.2979 26.742C10.2979 26.742 8.23795 27.875 7.68195 27.318C7.12495 26.76 8.26294 24.707 8.26294 24.707C8.26294 24.707 10.2139 24.743 10.2979 26.742Z" fill="#292F33"/>
<path d="M22.728 5.93498L26.688 1.97498L33.024 8.31198L29.064 12.272L22.728 5.93498Z" fill="#CCD6DD"/>
<path d="M25.103 3.55799L25.895 2.76599L32.231 9.10099L31.439 9.89299L25.103 3.55799ZM23.52 5.14199L24.311 4.35099L30.647 10.686L29.855 11.478L23.52 5.14199Z" fill="#99AAB5"/>
</svg>
