<svg width="36" height="34" viewBox="0 0 36 34" fill="none" xmlns="http://www.w3.org/2000/svg">
<path d="M18 0.02771C8.059 0.02771 0 6.24697 0 13.9188C0 18.2529 2.574 22.1225 6.604 24.6696C6.08 26.9606 4.859 30.359 2 33.7633C7.758 32.8108 11.439 30.0316 13.716 27.3972C15.092 27.6572 16.521 27.81 18 27.81C27.941 27.81 36 21.5907 36 13.9188C36 6.24697 27.941 0.02771 18 0.02771Z" fill="#BDDDF4"/>
<path d="M18 15.9033C19.1046 15.9033 20 15.0149 20 13.9189C20 12.8229 19.1046 11.9344 18 11.9344C16.8954 11.9344 16 12.8229 16 13.9189C16 15.0149 16.8954 15.9033 18 15.9033Z" fill="#2A6797"/>
<path d="M26 15.9033C27.1046 15.9033 28 15.0149 28 13.9189C28 12.8229 27.1046 11.9344 26 11.9344C24.8954 11.9344 24 12.8229 24 13.9189C24 15.0149 24.8954 15.9033 26 15.9033Z" fill="#2A6797"/>
<path d="M10 15.9033C11.1046 15.9033 12 15.0149 12 13.9189C12 12.8229 11.1046 11.9344 10 11.9344C8.89543 11.9344 8 12.8229 8 13.9189C8 15.0149 8.89543 15.9033 10 15.9033Z" fill="#2A6797"/>
</svg>
