<svg width="34" height="33" viewBox="0 0 34 33" fill="none" xmlns="http://www.w3.org/2000/svg">
<path d="M16.7059 32.1489C25.9323 32.1489 33.4118 25.0412 33.4118 16.2733C33.4118 7.50546 25.9323 0.397705 16.7059 0.397705C7.47948 0.397705 0 7.50546 0 16.2733C0 25.0412 7.47948 32.1489 16.7059 32.1489Z" fill="#FFCC4D"/>
<path d="M9.8411 19.6225C9.88287 19.7804 10.9251 23.4847 16.788 23.4847C22.6517 23.4847 23.6931 19.7804 23.7348 19.6225C23.7859 19.4312 23.6949 19.2327 23.5149 19.1339C23.3339 19.036 23.1074 19.0651 22.958 19.2018C22.9404 19.2186 21.1445 20.8388 16.788 20.8388C12.4314 20.8388 10.6346 19.2186 10.6179 19.2027C10.5288 19.1189 10.41 19.0748 10.2912 19.0748C10.2133 19.0748 10.1344 19.0934 10.0629 19.1313C9.88101 19.2301 9.79005 19.4303 9.8411 19.6225Z" fill="#664500"/>
<path d="M11.1373 15.3914C12.4187 15.3914 13.4575 14.0093 13.4575 12.3044C13.4575 10.5996 12.4187 9.21753 11.1373 9.21753C9.85583 9.21753 8.81702 10.5996 8.81702 12.3044C8.81702 14.0093 9.85583 15.3914 11.1373 15.3914Z" fill="#664500"/>
<path d="M22.2746 15.3914C23.556 15.3914 24.5949 14.0093 24.5949 12.3044C24.5949 10.5996 23.556 9.21753 22.2746 9.21753C20.9932 9.21753 19.9543 10.5996 19.9543 12.3044C19.9543 14.0093 20.9932 15.3914 22.2746 15.3914Z" fill="#664500"/>
</svg>
