<svg width="34" height="34" viewBox="0 0 34 34" fill="none" xmlns="http://www.w3.org/2000/svg">
<path d="M34 17C34 26.3887 26.3887 34 17 34C7.61222 34 0 26.3887 0 17C0 7.61222 7.61222 0 17 0C26.3887 0 34 7.61222 34 17Z" fill="#FFCC4D"/>
<path d="M15.7382 9.95728C15.5427 9.87228 15.3123 9.92895 15.1791 10.0971C15.1706 10.1084 14.2545 11.2323 12.0294 11.8386C11.2974 12.0388 10.5834 12.1399 9.90908 12.1399C8.97219 12.1399 8.4367 11.9397 8.43386 11.9387C8.23553 11.8585 8.00603 11.9255 7.87947 12.0983C7.75197 12.2721 7.75858 12.5092 7.89458 12.6763C7.96164 12.7585 9.5757 14.7041 11.7904 14.7041C12.1219 14.7041 12.4534 14.6597 12.7755 14.5718C15.4709 13.8371 15.996 10.5976 16.0168 10.4597C16.0489 10.2491 15.9346 10.0432 15.7382 9.95728ZM26.1035 11.9926C25.9731 11.8216 25.7446 11.7612 25.5463 11.8424C25.5406 11.8452 24.9484 12.0842 23.9058 12.0842C23.2815 12.0842 22.6232 12.0001 21.9479 11.8339C19.7105 11.2833 18.7661 10.1821 18.7585 10.1736C18.6206 10.0073 18.3921 9.95351 18.1956 10.0442C18.0001 10.1339 17.8906 10.3445 17.9284 10.5561C17.9529 10.693 18.5593 13.9183 21.2708 14.586C21.5645 14.6587 21.8648 14.6956 22.1642 14.6956C24.4271 14.6956 26.0355 12.6556 26.1025 12.5687C26.2329 12.3977 26.2319 12.1626 26.1035 11.9926ZM9.44253 9.44445C9.01942 9.44445 8.63503 9.15828 8.52736 8.72951C8.40175 8.22423 8.70775 7.71234 9.21114 7.58484C9.24514 7.57634 12.6045 6.67723 14.2658 3.35562C14.4991 2.88906 15.0648 2.69923 15.5333 2.93345C15.9998 3.16673 16.1887 3.73434 15.9554 4.2009C13.8956 8.31962 9.84392 9.37362 9.67297 9.41706C9.59647 9.43595 9.51903 9.44445 9.44253 9.44445ZM24.5555 9.44445C24.48 9.44445 24.4035 9.43501 24.327 9.41612C24.1551 9.37362 20.1034 8.31867 18.0445 4.19995C17.8113 3.7334 18.0001 3.16578 18.4667 2.93251C18.9323 2.69923 19.4999 2.88812 19.7341 3.35467C21.3945 6.67628 24.7539 7.5754 24.7888 7.5839C25.2922 7.71328 25.5982 8.22706 25.4707 8.7314C25.3611 9.15923 24.9777 9.44445 24.5555 9.44445ZM17 27.3558C13.5783 27.3558 11.3078 27.7544 8.49997 28.3003C7.8587 28.424 6.61108 28.3003 6.61108 26.4114C6.61108 22.6336 10.9508 17.9114 17 17.9114C23.0482 17.9114 27.3889 22.6336 27.3889 26.4114C27.3889 28.3003 26.1413 28.425 25.5 28.3003C22.6921 27.7544 20.4217 27.3558 17 27.3558Z" fill="#664500"/>
<path d="M9.44446 23.6111C9.44446 23.6111 12.2778 22.6667 17 22.6667C21.7222 22.6667 24.5556 23.6111 24.5556 23.6111C24.5556 23.6111 22.6667 19.8333 17 19.8333C11.3333 19.8333 9.44446 23.6111 9.44446 23.6111Z" fill="white"/>
</svg>
