<svg width="30" height="30" viewBox="0 0 30 30" fill="none" xmlns="http://www.w3.org/2000/svg">
<path d="M30 15C30 23.2842 23.2842 30 15 30C6.71667 30 0 23.2842 0 15C0 6.71667 6.71667 0 15 0C23.2842 0 30 6.71667 30 15Z" fill="#FFCC4D"/>
<path d="M9.58333 16.6667C10.7339 16.6667 11.6667 15.3608 11.6667 13.75C11.6667 12.1392 10.7339 10.8333 9.58333 10.8333C8.43274 10.8333 7.5 12.1392 7.5 13.75C7.5 15.3608 8.43274 16.6667 9.58333 16.6667Z" fill="#664500"/>
<path d="M20.4167 16.6667C21.5673 16.6667 22.5 15.3608 22.5 13.75C22.5 12.1392 21.5673 10.8333 20.4167 10.8333C19.2661 10.8333 18.3334 12.1392 18.3334 13.75C18.3334 15.3608 19.2661 16.6667 20.4167 16.6667Z" fill="#664500"/>
<path d="M19.5709 23.2325C19.5617 23.1958 18.6167 19.5833 15.0001 19.5833C11.3834 19.5833 10.4384 23.1958 10.4292 23.2325C10.3851 23.41 10.4659 23.5917 10.6226 23.6858C10.7792 23.7792 10.9834 23.7575 11.1192 23.6358C11.1267 23.6292 11.9634 22.9167 15.0001 22.9167C17.9917 22.9167 18.8476 23.6083 18.8801 23.6358C18.9592 23.7108 19.0626 23.75 19.1667 23.75C19.2367 23.75 19.3076 23.7325 19.3717 23.6967C19.5351 23.6033 19.6167 23.4142 19.5709 23.2325Z" fill="#664500"/>
</svg>
