<svg width="30" height="30" viewBox="0 0 30 30" fill="none" xmlns="http://www.w3.org/2000/svg">
<path d="M30 15C30 23.2842 23.2842 30 15 30C6.71667 30 0 23.2842 0 15C0 6.71667 6.71667 0 15 0C23.2842 0 30 6.71667 30 15Z" fill="#FFCC4D"/>
<path d="M9.58333 16.6667C10.7339 16.6667 11.6667 15.3608 11.6667 13.75C11.6667 12.1392 10.7339 10.8333 9.58333 10.8333C8.43274 10.8333 7.5 12.1392 7.5 13.75C7.5 15.3608 8.43274 16.6667 9.58333 16.6667Z" fill="#664500"/>
<path d="M20.4167 16.6667C21.5673 16.6667 22.5 15.3608 22.5 13.75C22.5 12.1392 21.5673 10.8333 20.4167 10.8333C19.2661 10.8333 18.3334 12.1392 18.3334 13.75C18.3334 15.3608 19.2661 16.6667 20.4167 16.6667Z" fill="#664500"/>
<path d="M20.8334 21.6667H9.16671C8.70671 21.6667 8.33337 21.2942 8.33337 20.8333C8.33337 20.3725 8.70671 20 9.16671 20H20.8334C21.2942 20 21.6667 20.3725 21.6667 20.8333C21.6667 21.2942 21.2942 21.6667 20.8334 21.6667Z" fill="#664500"/>
</svg>
