<svg width="30" height="30" viewBox="0 0 30 30" fill="none" xmlns="http://www.w3.org/2000/svg">
<path d="M15 30C23.2843 30 30 23.2843 30 15C30 6.71573 23.2843 0 15 0C6.71573 0 0 6.71573 0 15C0 23.2843 6.71573 30 15 30Z" fill="#FFCC4D"/>
<path d="M8.76251 19.6842C8.80001 19.8333 9.73585 23.3333 15 23.3333C20.265 23.3333 21.2 19.8333 21.2375 19.6842C21.2833 19.5033 21.2017 19.3158 21.04 19.2225C20.8775 19.13 20.6742 19.1575 20.54 19.2867C20.5242 19.3025 18.9117 20.8333 15 20.8333C11.0883 20.8333 9.47501 19.3025 9.46001 19.2875C9.38001 19.2083 9.27335 19.1667 9.16668 19.1667C9.09668 19.1667 9.02585 19.1842 8.96168 19.22C8.79835 19.3133 8.71668 19.5025 8.76251 19.6842Z" fill="#664500"/>
<path d="M9.99996 14.1667C11.1506 14.1667 12.0833 12.8608 12.0833 11.25C12.0833 9.63917 11.1506 8.33334 9.99996 8.33334C8.84937 8.33334 7.91663 9.63917 7.91663 11.25C7.91663 12.8608 8.84937 14.1667 9.99996 14.1667Z" fill="#664500"/>
<path d="M20 14.1667C21.1506 14.1667 22.0833 12.8608 22.0833 11.25C22.0833 9.63917 21.1506 8.33334 20 8.33334C18.8494 8.33334 17.9166 9.63917 17.9166 11.25C17.9166 12.8608 18.8494 14.1667 20 14.1667Z" fill="#664500"/>
</svg>
