<svg width="30" height="30" viewBox="0 0 30 30" fill="none" xmlns="http://www.w3.org/2000/svg">
<path d="M30 15C30 23.2842 23.2842 30 15 30C6.71667 30 0 23.2842 0 15C0 6.71667 6.71667 0 15 0C23.2842 0 30 6.71667 30 15Z" fill="#FFCC4D"/>
<path d="M9.58333 15C10.7339 15 11.6667 12.948 11.6667 10.4167C11.6667 7.88536 10.7339 5.83334 9.58333 5.83334C8.43274 5.83334 7.5 7.88536 7.5 10.4167C7.5 12.948 8.43274 15 9.58333 15Z" fill="#664500"/>
<path d="M20.4167 15C21.5673 15 22.5 12.948 22.5 10.4167C22.5 7.88536 21.5673 5.83334 20.4167 5.83334C19.2661 5.83334 18.3334 7.88536 18.3334 10.4167C18.3334 12.948 19.2661 15 20.4167 15Z" fill="#664500"/>
<path d="M15 18.3333C11.9809 18.3333 9.97754 17.9817 7.50004 17.5C6.93421 17.3908 5.83337 17.5 5.83337 19.1667C5.83337 22.5 9.66254 26.6667 15 26.6667C20.3367 26.6667 24.1667 22.5 24.1667 19.1667C24.1667 17.5 23.0659 17.39 22.5 17.5C20.0225 17.9817 18.0192 18.3333 15 18.3333Z" fill="#664500"/>
<path d="M7.5 19.1667C7.5 19.1667 10 20 15 20C20 20 22.5 19.1667 22.5 19.1667C22.5 19.1667 20.8333 22.5 15 22.5C9.16667 22.5 7.5 19.1667 7.5 19.1667Z" fill="white"/>
</svg>
