<svg width="20" height="30" viewBox="0 0 20 30" fill="none" xmlns="http://www.w3.org/2000/svg">
<path d="M8.18182 22.7273C6.67545 22.7273 5.45455 21.5064 5.45455 20V16.3636C5.45455 14.8573 6.67545 13.6364 8.18182 13.6364C8.73 13.6309 13.6364 12.7273 13.6364 9.09091C13.6364 7.27273 11.8182 5.45455 9.09091 5.45455C6.87182 5.45455 5.45455 7.27273 5.45455 8.18182C5.45455 9.68818 4.23364 10.9091 2.72727 10.9091C1.22091 10.9091 0 9.68818 0 8.18182C0 3.74727 4.16364 0 9.09091 0C16.3636 0 19.0909 5.43818 19.0909 10C19.0909 13.7682 17.0209 16.6482 13.2609 18.1091C12.4427 18.4282 11.6336 18.6427 10.9091 18.7882V20C10.9091 21.5064 9.68818 22.7273 8.18182 22.7273Z" fill="#A3A3A3"/>
<path d="M8.18186 30C9.68809 30 10.9091 28.779 10.9091 27.2727C10.9091 25.7665 9.68809 24.5455 8.18186 24.5455C6.67563 24.5455 5.45459 25.7665 5.45459 27.2727C5.45459 28.779 6.67563 30 8.18186 30Z" fill="#A3A3A3"/>
</svg>
