<svg width="178" height="191" viewBox="0 0 178 191" fill="none" xmlns="http://www.w3.org/2000/svg">
<path d="M160.229 175.53H147.055V191H160.229V175.53Z" fill="url(#paint0_linear)"/>
<path d="M147.362 190.435H159.925V175.527H147.362V190.435Z" fill="#F5F5F5"/>
<path d="M31.249 175.53H18.0754V191H31.249V175.53Z" fill="url(#paint1_linear)"/>
<path d="M30.9446 175.53H18.3826V190.437H30.9446V175.53Z" fill="#F5F5F5"/>
<path d="M174.1 0H3.89957C1.7459 0 0 1.7336 0 3.87211V173.787C0 175.925 1.7459 177.659 3.89957 177.659H174.1C176.254 177.659 178 175.925 178 173.787V3.87211C178 1.7336 176.254 0 174.1 0Z" fill="url(#paint2_linear)"/>
<path d="M173.179 0.912003H5.12504C2.97136 0.912003 1.22546 2.64561 1.22546 4.78412V171.655C1.22546 173.794 2.97136 175.527 5.12504 175.527H173.179C175.333 175.527 177.079 173.794 177.079 171.655V4.78412C177.079 2.64561 175.333 0.912003 173.179 0.912003Z" fill="#7C7C7C"/>
<path d="M148.436 29.0513H29.5642V148.303H148.436V29.0513Z" fill="url(#paint3_linear)"/>
<path d="M143.942 77.0133C147.539 76.0655 150.033 73.7174 149.513 71.7686C148.992 69.8199 145.653 69.0084 142.056 69.9562C138.459 70.904 135.965 73.2521 136.485 75.2008C137.006 77.1496 140.344 77.961 143.942 77.0133Z" fill="white"/>
<path d="M148.678 103.694C149.338 101.787 147.019 99.2682 143.499 98.0674C139.98 96.8667 136.591 97.4391 135.932 99.3459C135.272 101.253 137.591 103.772 141.11 104.973C144.63 106.173 148.019 105.601 148.678 103.694Z" fill="white"/>
<path d="M148.241 91.9588C151.963 91.9588 154.98 90.3244 154.98 88.3082C154.98 86.292 151.963 84.6576 148.241 84.6576C144.52 84.6576 141.502 86.292 141.502 88.3082C141.502 90.3244 144.52 91.9588 148.241 91.9588Z" fill="white"/>
<path d="M147.514 30.2682H30.4827V146.476H147.514V30.2682Z" fill="#C5C5C5"/>
<path d="M89 110.277C101.183 110.277 111.059 100.47 111.059 88.3733C111.059 76.2762 101.183 66.4696 89 66.4696C76.8171 66.4696 66.9409 76.2762 66.9409 88.3733C66.9409 100.47 76.8171 110.277 89 110.277Z" fill="url(#paint4_linear)"/>
<path d="M89 109.365C100.676 109.365 110.141 99.9668 110.141 88.3733C110.141 76.7799 100.676 67.3816 89 67.3816C77.3244 67.3816 67.8594 76.7799 67.8594 88.3733C67.8594 99.9668 77.3244 109.365 89 109.365Z" fill="#FAFAFA"/>
<path d="M79.3508 130.201H72.9163V136.892H79.3508V130.201Z" fill="url(#paint5_linear)"/>
<path d="M87.9292 130.201H81.4946V136.892H87.9292V130.201Z" fill="url(#paint6_linear)"/>
<path d="M96.5054 130.201H90.0708V136.892H96.5054V130.201Z" fill="url(#paint7_linear)"/>
<path d="M105.084 130.201H98.6492V136.892H105.084V130.201Z" fill="url(#paint8_linear)"/>
<path d="M79.1959 130.505H73.0684V136.59H79.1959V130.505Z" fill="#6C63FF"/>
<path opacity="0.7" d="M87.7745 130.505H81.647V136.59H87.7745V130.505Z" fill="#6C63FF"/>
<path opacity="0.5" d="M96.3529 130.505H90.2253V136.59H96.3529V130.505Z" fill="#6C63FF"/>
<path opacity="0.3" d="M104.932 130.505H98.804V136.59H104.932V130.505Z" fill="#6C63FF"/>
<path d="M98.8533 75.7265L97.8494 75.0285L95.3899 78.5162L96.3938 79.2142L98.8533 75.7265Z" fill="#6C63FF"/>
<path d="M101.736 98.1557L102.439 97.1589L98.9267 94.7167L98.2238 95.7135L101.736 98.1557Z" fill="#6C63FF"/>
<path d="M79.1458 101.019L80.1497 101.717L82.6091 98.229L81.6052 97.5311L79.1458 101.019Z" fill="#6C63FF"/>
<path d="M76.2647 78.5897L75.5618 79.5865L79.0743 82.0287L79.7772 81.0319L76.2647 78.5897Z" fill="#6C63FF"/>
<path opacity="0.2" d="M98.8418 75.6906L97.8379 74.9927L95.3784 78.4804L96.3823 79.1784L98.8418 75.6906Z" fill="black"/>
<path opacity="0.2" d="M101.726 98.1207L102.429 97.1239L98.9167 94.6817L98.2138 95.6785L101.726 98.1207Z" fill="black"/>
<path opacity="0.2" d="M79.1375 100.982L80.1414 101.68L82.6008 98.1924L81.5969 97.4945L79.1375 100.982Z" fill="black"/>
<path opacity="0.2" d="M76.2549 78.5539L75.552 79.5507L79.0645 81.9929L79.7674 80.9961L76.2549 78.5539Z" fill="black"/>
<path d="M89 101.605C96.3596 101.605 102.326 95.6811 102.326 88.3733C102.326 81.0655 96.3596 75.1414 89 75.1414C81.6404 75.1414 75.6743 81.0655 75.6743 88.3733C75.6743 95.6811 81.6404 101.605 89 101.605Z" fill="url(#paint9_linear)"/>
<path d="M89.0001 100.847C95.9379 100.847 101.562 95.2623 101.562 88.3733C101.562 81.4843 95.9379 75.8997 89.0001 75.8997C82.0622 75.8997 76.438 81.4843 76.438 88.3733C76.438 95.2623 82.0622 100.847 89.0001 100.847Z" fill="#6C63FF"/>
<path opacity="0.2" d="M78.7367 90.0462C78.7342 87.859 79.3112 85.7096 80.4096 83.8137C81.508 81.9178 83.0892 80.3421 84.9947 79.2447C86.9001 78.1473 89.0627 77.5668 91.2654 77.5614C93.4682 77.5561 95.6336 78.1261 97.5444 79.2142C96.2625 77.9892 94.7331 77.0486 93.0575 76.4547C91.3819 75.8608 89.5984 75.6272 87.825 75.7693C86.0516 75.9114 84.3289 76.426 82.7709 77.279C81.2129 78.1321 79.8552 79.304 78.7878 80.7173C77.7203 82.1306 76.9674 83.7529 76.5789 85.4769C76.1905 87.2009 76.1753 88.9871 76.5344 90.7174C76.8936 92.4476 77.6188 94.0823 78.6622 95.5133C79.7055 96.9442 81.0431 98.1388 82.5864 99.0177C81.3689 97.8572 80.4002 96.4642 79.7386 94.9224C79.0771 93.3807 78.7363 91.7221 78.7367 90.0462Z" fill="white"/>
<path d="M35.5396 77.2703H25.7356V52.9641C25.7363 52.7137 25.837 52.4737 26.0155 52.2969C26.1941 52.1201 26.436 52.0208 26.6882 52.0208H34.5897C34.8423 52.0208 35.0846 52.1205 35.2633 52.2978C35.4419 52.4752 35.5423 52.7158 35.5423 52.9667L35.5396 77.2703Z" fill="url(#paint10_linear)"/>
<path d="M34.5398 125.031H26.7354C26.4702 125.031 26.2159 124.926 26.0284 124.74C25.8409 124.554 25.7356 124.301 25.7356 124.038V99.7812H35.5396V124.033C35.5403 124.164 35.515 124.293 35.465 124.414C35.4151 124.535 35.3416 124.645 35.2487 124.738C35.1558 124.831 35.0453 124.904 34.9236 124.955C34.802 125.005 34.6716 125.031 34.5398 125.031Z" fill="url(#paint11_linear)"/>
<path d="M26.8719 52.3231H34.4007C34.6214 52.3231 34.833 52.4101 34.989 52.565C35.145 52.7199 35.2326 52.93 35.2326 53.1491V76.6606H26.0479V53.1569C26.0469 53.0484 26.0673 52.9408 26.1082 52.8402C26.149 52.7396 26.2094 52.6479 26.286 52.5705C26.3625 52.4931 26.4536 52.4314 26.5541 52.3889C26.6547 52.3465 26.7626 52.3241 26.8719 52.3231Z" fill="#FAFAFA"/>
<path d="M26.04 100.086H35.2248V124.145C35.2248 124.218 35.1955 124.288 35.1433 124.34C35.0911 124.392 35.0204 124.421 34.9466 124.421H26.3208C26.2471 124.421 26.1763 124.392 26.1241 124.34C26.072 124.288 26.0427 124.218 26.0427 124.145V100.086H26.04Z" fill="#FAFAFA"/>
<defs>
<linearGradient id="paint0_linear" x1="153.642" y1="191" x2="153.642" y2="175.53" gradientUnits="userSpaceOnUse">
<stop stop-color="#808080" stop-opacity="0.25"/>
<stop offset="0.54" stop-color="#808080" stop-opacity="0.12"/>
<stop offset="1" stop-color="#808080" stop-opacity="0.1"/>
</linearGradient>
<linearGradient id="paint1_linear" x1="1256.12" y1="175.53" x2="1256.12" y2="10596.7" gradientUnits="userSpaceOnUse">
<stop stop-color="#808080" stop-opacity="0.25"/>
<stop offset="0.54" stop-color="#808080" stop-opacity="0.12"/>
<stop offset="1" stop-color="#808080" stop-opacity="0.1"/>
</linearGradient>
<linearGradient id="paint2_linear" x1="60368.7" y1="121128" x2="60368.7" y2="0" gradientUnits="userSpaceOnUse">
<stop stop-color="#808080" stop-opacity="0.25"/>
<stop offset="0.54" stop-color="#808080" stop-opacity="0.12"/>
<stop offset="1" stop-color="#808080" stop-opacity="0.1"/>
</linearGradient>
<linearGradient id="paint3_linear" x1="40344.8" y1="67899.7" x2="40344.8" y2="13324.4" gradientUnits="userSpaceOnUse">
<stop stop-color="#808080" stop-opacity="0.25"/>
<stop offset="0.54" stop-color="#808080" stop-opacity="0.12"/>
<stop offset="1" stop-color="#808080" stop-opacity="0.1"/>
</linearGradient>
<linearGradient id="paint4_linear" x1="15029.6" y1="18606.3" x2="15029.6" y2="11241.3" gradientUnits="userSpaceOnUse">
<stop stop-color="#808080" stop-opacity="0.25"/>
<stop offset="0.54" stop-color="#808080" stop-opacity="0.12"/>
<stop offset="1" stop-color="#808080" stop-opacity="0.1"/>
</linearGradient>
<linearGradient id="paint5_linear" x1="1939.65" y1="3645.65" x2="1939.65" y2="3473.74" gradientUnits="userSpaceOnUse">
<stop stop-color="#808080" stop-opacity="0.25"/>
<stop offset="0.54" stop-color="#808080" stop-opacity="0.12"/>
<stop offset="1" stop-color="#808080" stop-opacity="0.1"/>
</linearGradient>
<linearGradient id="paint6_linear" x1="2158.57" y1="3645.65" x2="2158.57" y2="3473.74" gradientUnits="userSpaceOnUse">
<stop stop-color="#808080" stop-opacity="0.25"/>
<stop offset="0.54" stop-color="#808080" stop-opacity="0.12"/>
<stop offset="1" stop-color="#808080" stop-opacity="0.1"/>
</linearGradient>
<linearGradient id="paint7_linear" x1="2377.49" y1="3645.65" x2="2377.49" y2="3473.74" gradientUnits="userSpaceOnUse">
<stop stop-color="#808080" stop-opacity="0.25"/>
<stop offset="0.54" stop-color="#808080" stop-opacity="0.12"/>
<stop offset="1" stop-color="#808080" stop-opacity="0.1"/>
</linearGradient>
<linearGradient id="paint8_linear" x1="2596.41" y1="3645.65" x2="2596.41" y2="3473.74" gradientUnits="userSpaceOnUse">
<stop stop-color="#808080" stop-opacity="0.25"/>
<stop offset="0.54" stop-color="#808080" stop-opacity="0.12"/>
<stop offset="1" stop-color="#808080" stop-opacity="0.1"/>
</linearGradient>
<linearGradient id="paint9_linear" x1="9114.51" y1="10394.2" x2="9114.51" y2="7706.24" gradientUnits="userSpaceOnUse">
<stop stop-color="#808080" stop-opacity="0.25"/>
<stop offset="0.54" stop-color="#808080" stop-opacity="0.12"/>
<stop offset="1" stop-color="#808080" stop-opacity="0.1"/>
</linearGradient>
<linearGradient id="paint10_linear" x1="3728.73" y1="9660.47" x2="3728.73" y2="7213.8" gradientUnits="userSpaceOnUse">
<stop stop-color="#808080" stop-opacity="0.25"/>
<stop offset="0.54" stop-color="#808080" stop-opacity="0.12"/>
<stop offset="1" stop-color="#808080" stop-opacity="0.1"/>
</linearGradient>
<linearGradient id="paint11_linear" x1="3727.75" y1="14336.2" x2="3727.75" y2="11889.5" gradientUnits="userSpaceOnUse">
<stop stop-color="#808080" stop-opacity="0.25"/>
<stop offset="0.54" stop-color="#808080" stop-opacity="0.12"/>
<stop offset="1" stop-color="#808080" stop-opacity="0.1"/>
</linearGradient>
</defs>
</svg>
