<svg width="230" height="178" viewBox="0 0 230 178" fill="none" xmlns="http://www.w3.org/2000/svg">
<path d="M123.418 178C123.023 178 122.635 177.897 122.292 177.703L57.1793 141.006C56.65 140.707 56.2614 140.211 56.0986 139.626C55.9359 139.042 56.0123 138.417 56.3111 137.888L107.596 47.4618C107.744 47.2003 107.943 46.9704 108.18 46.7853C108.417 46.6003 108.689 46.4636 108.979 46.3833C109.27 46.3029 109.573 46.2803 109.872 46.3169C110.171 46.3535 110.46 46.4484 110.723 46.5963L175.835 83.2934C176.365 83.5925 176.753 84.0886 176.916 84.673C177.079 85.2573 177.003 85.8822 176.704 86.4106L125.419 176.837C125.272 177.099 125.073 177.329 124.836 177.515C124.598 177.7 124.326 177.836 124.035 177.916C123.835 177.972 123.627 178 123.418 178Z" fill="#E6E6E6"/>
<path d="M105.78 51.0046L105.518 51.4659L174.333 90.2496L174.595 89.7883L105.78 51.0046Z" fill="white"/>
<path d="M101.07 59.309L100.808 59.7704L169.623 98.5541L169.885 98.0927L101.07 59.309Z" fill="white"/>
<path d="M96.36 67.6135L96.0984 68.0749L164.914 106.859L165.175 106.397L96.36 67.6135Z" fill="white"/>
<path d="M91.6502 75.918L91.3885 76.3794L160.204 115.163L160.465 114.702L91.6502 75.918Z" fill="white"/>
<path d="M86.9405 84.2225L86.6788 84.6838L155.494 123.468L155.756 123.006L86.9405 84.2225Z" fill="white"/>
<path d="M82.2306 92.527L81.969 92.9883L150.784 131.772L151.046 131.311L82.2306 92.527Z" fill="white"/>
<path d="M77.5208 100.831L77.2592 101.293L146.074 140.076L146.336 139.615L77.5208 100.831Z" fill="white"/>
<path d="M72.811 109.136L72.5493 109.597L141.365 148.381L141.626 147.92L72.811 109.136Z" fill="white"/>
<path d="M68.1013 117.44L67.8396 117.902L136.655 156.685L136.916 156.224L68.1013 117.44Z" fill="white"/>
<path d="M63.3914 125.745L63.1298 126.206L131.945 164.99L132.207 164.529L63.3914 125.745Z" fill="white"/>
<path d="M58.6816 134.049L58.4199 134.511L127.235 173.294L127.497 172.833L58.6816 134.049Z" fill="white"/>
<path d="M117.361 164.246C116.966 164.246 116.578 164.144 116.235 163.949L51.1222 127.252C50.5929 126.953 50.2043 126.457 50.0415 125.873C49.8788 125.288 49.9551 124.663 50.2539 124.135L101.539 33.7083C101.687 33.4467 101.885 33.2168 102.123 33.0318C102.36 32.8467 102.632 32.7101 102.922 32.6297C103.213 32.5493 103.516 32.5268 103.815 32.5633C104.114 32.5999 104.403 32.6949 104.666 32.8428L169.778 69.5398C170.308 69.8389 170.696 70.335 170.859 70.9194C171.022 71.5038 170.946 72.1287 170.647 72.657L119.362 163.083C119.214 163.346 119.016 163.576 118.779 163.761C118.541 163.946 118.269 164.083 117.978 164.162C117.777 164.218 117.57 164.246 117.361 164.246Z" fill="#F2F2F2"/>
<path d="M99.7226 37.251L99.4609 37.7124L168.276 76.4961L168.538 76.0347L99.7226 37.251Z" fill="white"/>
<path d="M95.0128 45.5555L94.7511 46.0168L163.566 84.8005L163.828 84.3392L95.0128 45.5555Z" fill="white"/>
<path d="M90.3029 53.86L90.0413 54.3213L158.856 93.105L159.118 92.6436L90.3029 53.86Z" fill="white"/>
<path d="M85.5931 62.1644L85.3314 62.6258L154.147 101.409L154.408 100.948L85.5931 62.1644Z" fill="white"/>
<path d="M80.8834 70.4689L80.6217 70.9303L149.437 109.714L149.699 109.253L80.8834 70.4689Z" fill="white"/>
<path d="M76.1735 78.7734L75.9119 79.2347L144.727 118.018L144.989 117.557L76.1735 78.7734Z" fill="white"/>
<path d="M71.4637 87.0779L71.202 87.5392L140.017 126.323L140.279 125.862L71.4637 87.0779Z" fill="white"/>
<path d="M66.7538 95.3824L66.4922 95.8437L135.307 134.627L135.569 134.166L66.7538 95.3824Z" fill="white"/>
<path d="M62.0441 103.687L61.7825 104.148L130.598 142.932L130.859 142.47L62.0441 103.687Z" fill="white"/>
<path d="M57.3343 111.991L57.0726 112.453L125.888 151.236L126.15 150.775L57.3343 111.991Z" fill="white"/>
<path d="M52.6244 120.296L52.3628 120.757L121.178 159.541L121.44 159.079L52.6244 120.296Z" fill="white"/>
<path d="M110.873 32H6.81213V176.245H110.873C111.246 176.245 111.605 176.097 111.869 175.833C112.134 175.57 112.282 175.212 112.282 174.84V33.405C112.282 33.0324 112.134 32.675 111.869 32.4115C111.605 32.148 111.246 32 110.873 32ZM12.6846 172.264C12.1736 172.264 11.674 172.113 11.2491 171.83C10.8242 171.547 10.493 171.145 10.2974 170.674C10.1018 170.203 10.0507 169.685 10.1504 169.186C10.2501 168.686 10.4962 168.227 10.8575 167.867C11.2189 167.507 11.6793 167.261 12.1805 167.162C12.6818 167.062 13.2013 167.113 13.6734 167.308C14.1456 167.503 14.5491 167.833 14.833 168.257C15.117 168.681 15.2685 169.179 15.2685 169.688C15.2685 170.026 15.2017 170.361 15.0718 170.674C14.942 170.986 14.7516 171.27 14.5117 171.51C14.2718 171.749 13.9869 171.938 13.6734 172.068C13.3599 172.197 13.0239 172.264 12.6846 172.264ZM12.6846 159.151C12.1736 159.151 11.674 159 11.2491 158.717C10.8242 158.434 10.493 158.031 10.2974 157.561C10.1018 157.09 10.0507 156.572 10.1504 156.072C10.2501 155.573 10.4962 155.114 10.8575 154.754C11.2189 154.393 11.6793 154.148 12.1805 154.049C12.6818 153.949 13.2013 154 13.6734 154.195C14.1456 154.39 14.5491 154.72 14.833 155.144C15.117 155.568 15.2685 156.066 15.2685 156.575C15.2685 156.913 15.2017 157.248 15.0718 157.561C14.942 157.873 14.7517 158.157 14.5117 158.396C14.2718 158.636 13.9869 158.825 13.6734 158.955C13.3599 159.084 13.0239 159.151 12.6846 159.151ZM12.6846 146.038C12.1736 146.038 11.674 145.887 11.2491 145.604C10.8242 145.32 10.493 144.918 10.2974 144.448C10.1018 143.977 10.0507 143.459 10.1504 142.959C10.2501 142.46 10.4962 142.001 10.8575 141.64C11.2189 141.28 11.6793 141.035 12.1805 140.936C12.6818 140.836 13.2013 140.887 13.6734 141.082C14.1456 141.277 14.5491 141.607 14.833 142.031C15.117 142.454 15.2685 142.952 15.2685 143.462C15.2685 143.8 15.2017 144.135 15.0718 144.448C14.942 144.76 14.7516 145.044 14.5117 145.283C14.2718 145.522 13.9869 145.712 13.6734 145.842C13.3599 145.971 13.0239 146.038 12.6846 146.038ZM12.6846 132.924C12.1736 132.924 11.674 132.773 11.2491 132.49C10.8242 132.207 10.493 131.805 10.2974 131.334C10.1018 130.864 10.0507 130.346 10.1504 129.846C10.2501 129.347 10.4962 128.888 10.8575 128.527C11.2189 128.167 11.6793 127.922 12.1805 127.822C12.6818 127.723 13.2013 127.774 13.6734 127.969C14.1456 128.164 14.5491 128.494 14.833 128.918C15.117 129.341 15.2685 129.839 15.2685 130.349C15.2685 130.687 15.2017 131.022 15.0718 131.334C14.942 131.647 14.7516 131.931 14.5117 132.17C14.2718 132.409 13.9869 132.599 13.6734 132.728C13.3599 132.858 13.0239 132.924 12.6846 132.924ZM12.6846 119.811C12.1736 119.811 11.674 119.66 11.2491 119.377C10.8242 119.094 10.493 118.692 10.2974 118.221C10.1018 117.751 10.0507 117.233 10.1504 116.733C10.2501 116.233 10.4962 115.774 10.8575 115.414C11.2189 115.054 11.6793 114.809 12.1805 114.709C12.6818 114.61 13.2013 114.661 13.6734 114.856C14.1456 115.051 14.5491 115.381 14.833 115.804C15.117 116.228 15.2685 116.726 15.2685 117.236C15.2685 117.574 15.2017 117.909 15.0718 118.221C14.942 118.534 14.7516 118.818 14.5117 119.057C14.2718 119.296 13.9869 119.486 13.6734 119.615C13.3599 119.745 13.0239 119.811 12.6846 119.811ZM12.6846 106.698C12.1736 106.698 11.674 106.547 11.2491 106.264C10.8242 105.981 10.493 105.579 10.2974 105.108C10.1018 104.637 10.0507 104.119 10.1504 103.62C10.2501 103.12 10.4962 102.661 10.8575 102.301C11.2189 101.941 11.6793 101.695 12.1805 101.596C12.6818 101.497 13.2013 101.548 13.6734 101.743C14.1456 101.938 14.5491 102.268 14.833 102.691C15.117 103.115 15.2685 103.613 15.2685 104.122C15.2685 104.461 15.2017 104.796 15.0718 105.108C14.942 105.421 14.7516 105.705 14.5117 105.944C14.2718 106.183 13.9869 106.373 13.6734 106.502C13.3599 106.632 13.0239 106.698 12.6846 106.698ZM12.6846 93.585C12.1736 93.585 11.674 93.4339 11.2491 93.1509C10.8242 92.8679 10.493 92.4656 10.2974 91.9949C10.1018 91.5243 10.0507 91.0063 10.1504 90.5067C10.2501 90.007 10.4962 89.5481 10.8575 89.1878C11.2189 88.8276 11.6793 88.5823 12.1805 88.4829C12.6818 88.3835 13.2013 88.4345 13.6734 88.6295C14.1456 88.8244 14.5491 89.1546 14.833 89.5782C15.117 90.0017 15.2685 90.4998 15.2685 91.0092C15.2685 91.3475 15.2017 91.6824 15.0718 91.9949C14.942 92.3074 14.7516 92.5914 14.5117 92.8306C14.2718 93.0698 13.9869 93.2595 13.6734 93.3889C13.3599 93.5184 13.0239 93.585 12.6846 93.585ZM12.6846 80.4718C12.1736 80.4718 11.674 80.3208 11.2491 80.0377C10.8242 79.7547 10.493 79.3524 10.2974 78.8818C10.1018 78.4111 10.0507 77.8932 10.1504 77.3935C10.2501 76.8939 10.4962 76.4349 10.8575 76.0747C11.2189 75.7144 11.6793 75.4691 12.1805 75.3697C12.6818 75.2704 13.2013 75.3214 13.6734 75.5163C14.1456 75.7113 14.5491 76.0414 14.833 76.465C15.117 76.8886 15.2685 77.3866 15.2685 77.896C15.2685 78.2343 15.2017 78.5692 15.0718 78.8818C14.942 79.1943 14.7516 79.4782 14.5117 79.7174C14.2718 79.9566 13.9869 80.1463 13.6734 80.2758C13.3599 80.4052 13.0239 80.4718 12.6846 80.4718ZM12.6846 67.3587C12.1736 67.3587 11.674 67.2076 11.2491 66.9246C10.8242 66.6416 10.493 66.2393 10.2974 65.7686C10.1018 65.2979 10.0507 64.78 10.1504 64.2804C10.2501 63.7807 10.4962 63.3218 10.8575 62.9615C11.2189 62.6013 11.6793 62.356 12.1805 62.2566C12.6818 62.1572 13.2013 62.2082 13.6734 62.4032C14.1456 62.5981 14.5491 62.9283 14.833 63.3519C15.117 63.7754 15.2685 64.2734 15.2685 64.7829C15.2685 65.1211 15.2017 65.4561 15.0718 65.7686C14.942 66.0811 14.7516 66.3651 14.5117 66.6043C14.2718 66.8434 13.9869 67.0332 13.6734 67.1626C13.3599 67.2921 13.0239 67.3587 12.6846 67.3587ZM12.6846 54.2455C12.1736 54.2455 11.674 54.0945 11.2491 53.8114C10.8242 53.5284 10.493 53.1261 10.2974 52.6554C10.1018 52.1848 10.0507 51.6669 10.1504 51.1672C10.2501 50.6676 10.4962 50.2086 10.8575 49.8484C11.2189 49.4881 11.6793 49.2428 12.1805 49.1434C12.6818 49.044 13.2013 49.095 13.6734 49.29C14.1456 49.485 14.5491 49.8151 14.833 50.2387C15.117 50.6623 15.2685 51.1603 15.2685 51.6697C15.2685 52.008 15.2017 52.3429 15.0718 52.6554C14.942 52.968 14.7516 53.2519 14.5117 53.4911C14.2718 53.7303 13.9869 53.92 13.6734 54.0495C13.3599 54.1789 13.0239 54.2455 12.6846 54.2455ZM12.6846 41.1324C12.1736 41.1324 11.674 40.9813 11.2491 40.6983C10.8242 40.4152 10.493 40.013 10.2974 39.5423C10.1018 39.0716 10.0507 38.5537 10.1504 38.0541C10.2501 37.5544 10.4962 37.0954 10.8575 36.7352C11.2189 36.375 11.6793 36.1297 12.1805 36.0303C12.6818 35.9309 13.2013 35.9819 13.6734 36.1768C14.1456 36.3718 14.5491 36.702 14.833 37.1255C15.117 37.5491 15.2685 38.0471 15.2685 38.5566C15.2685 38.8948 15.2017 39.2298 15.0718 39.5423C14.942 39.8548 14.7516 40.1388 14.5117 40.3779C14.2718 40.6171 13.9869 40.8069 13.6734 40.9363C13.3599 41.0658 13.0239 41.1324 12.6846 41.1324Z" fill="#414680"/>
<path d="M6.81209 39.9616C6.11484 39.9616 0 39.9287 0 38.7907C0 37.6527 6.11484 37.6199 6.81209 37.6199V38.0882C3.21051 38.0882 0.875193 38.4901 0.499103 38.7907C0.875193 39.0913 3.21051 39.4932 6.81209 39.4932C10.4056 39.4932 12.7385 39.093 13.1225 38.7928C12.9398 38.6642 12.1934 38.3946 10.1913 38.222L10.2317 37.7555C13.6242 38.0478 13.6242 38.5876 13.6242 38.7907C13.6242 39.9287 7.50933 39.9616 6.81209 39.9616Z" fill="#2F2E41"/>
<path d="M6.81209 52.8406C6.11484 52.8406 0 52.8077 0 51.6697C0 50.5317 6.11484 50.4989 6.81209 50.4989V50.9673C3.21051 50.9673 0.875193 51.3692 0.499103 51.6697C0.875193 51.9703 3.21051 52.3722 6.81209 52.3722C10.4056 52.3722 12.7385 51.972 13.1225 51.6718C12.9398 51.5432 12.1934 51.2736 10.1913 51.101L10.2317 50.6345C13.6242 50.9268 13.6242 51.4666 13.6242 51.6698C13.6242 52.8077 7.50933 52.8406 6.81209 52.8406Z" fill="#2F2E41"/>
<path d="M6.81209 65.9537C6.11484 65.9537 0 65.9209 0 64.7829C0 63.6449 6.11484 63.6121 6.81209 63.6121V64.0804C3.21051 64.0804 0.875193 64.4823 0.499103 64.7829C0.875193 65.0835 3.21051 65.4854 6.81209 65.4854C10.4056 65.4854 12.7385 65.0852 13.1225 64.785C12.9398 64.6563 12.1934 64.3867 10.1913 64.2142L10.2317 63.7477C13.6242 64.0399 13.6242 64.5797 13.6242 64.7829C13.6242 65.9209 7.50933 65.9537 6.81209 65.9537Z" fill="#2F2E41"/>
<path d="M6.81209 79.0669C6.11484 79.0669 0 79.034 0 77.896C0 76.758 6.11484 76.7252 6.81209 76.7252V77.1936C3.21051 77.1936 0.875193 77.5954 0.499103 77.896C0.875193 78.1966 3.21051 78.5985 6.81209 78.5985C10.4056 78.5985 12.7385 78.1983 13.1225 77.8981C12.9398 77.7695 12.1934 77.4999 10.1913 77.3273L10.2317 76.8608C13.6242 77.1531 13.6242 77.6929 13.6242 77.896C13.6242 79.034 7.50933 79.0669 6.81209 79.0669Z" fill="#2F2E41"/>
<path d="M6.81209 92.18C6.11484 92.18 0 92.1472 0 91.0092C0 89.8712 6.11484 89.8384 6.81209 89.8384V90.3067C3.21051 90.3067 0.875193 90.7086 0.499103 91.0092C0.875193 91.3098 3.21051 91.7117 6.81209 91.7117C10.4056 91.7117 12.7385 91.3115 13.1225 91.0113C12.9398 90.8826 12.1934 90.613 10.1913 90.4405L10.2317 89.974C13.6242 90.2662 13.6242 90.806 13.6242 91.0092C13.6242 92.1472 7.50933 92.18 6.81209 92.18Z" fill="#2F2E41"/>
<path d="M6.81209 105.293C6.11484 105.293 0 105.26 0 104.122C0 102.984 6.11484 102.952 6.81209 102.952V103.42C3.21051 103.42 0.875193 103.822 0.499103 104.122C0.875193 104.423 3.21051 104.825 6.81209 104.825C10.4056 104.825 12.7385 104.425 13.1225 104.124C12.9398 103.996 12.1934 103.726 10.1913 103.554L10.2317 103.087C13.6242 103.379 13.6242 103.919 13.6242 104.122C13.6242 105.26 7.50933 105.293 6.81209 105.293Z" fill="#2F2E41"/>
<path d="M6.81209 118.406C6.11484 118.406 0 118.374 0 117.236C0 116.097 6.11484 116.065 6.81209 116.065V116.533C3.21051 116.533 0.875193 116.935 0.499103 117.236C0.875193 117.536 3.21051 117.938 6.81209 117.938C10.4056 117.938 12.7385 117.538 13.1225 117.238C12.9398 117.109 12.1934 116.839 10.1913 116.667L10.2317 116.2C13.6242 116.493 13.6242 117.032 13.6242 117.236C13.6242 118.374 7.50933 118.406 6.81209 118.406Z" fill="#2F2E41"/>
<path d="M6.81209 131.519C6.11484 131.519 0 131.487 0 130.349C0 129.211 6.11484 129.178 6.81209 129.178V129.646C3.21051 129.646 0.875193 130.048 0.499103 130.349C0.875193 130.649 3.21051 131.051 6.81209 131.051C10.4056 131.051 12.7385 130.651 13.1225 130.351C12.9398 130.222 12.1934 129.952 10.1913 129.78L10.2317 129.313C13.6242 129.606 13.6242 130.145 13.6242 130.349C13.6242 131.487 7.50933 131.519 6.81209 131.519Z" fill="#2F2E41"/>
<path d="M6.81209 144.633C6.11484 144.633 0 144.6 0 143.462C0 142.324 6.11484 142.291 6.81209 142.291V142.759C3.21051 142.759 0.875193 143.161 0.499103 143.462C0.875193 143.762 3.21051 144.164 6.81209 144.164C10.4056 144.164 12.7385 143.764 13.1225 143.464C12.9398 143.335 12.1934 143.066 10.1913 142.893L10.2317 142.427C13.6242 142.719 13.6242 143.259 13.6242 143.462C13.6242 144.6 7.50933 144.633 6.81209 144.633Z" fill="#2F2E41"/>
<path d="M6.81209 157.746C6.11484 157.746 0 157.713 0 156.575C0 155.437 6.11484 155.404 6.81209 155.404V155.872C3.21051 155.872 0.875193 156.274 0.499103 156.575C0.875193 156.876 3.21051 157.277 6.81209 157.277C10.4056 157.277 12.7385 156.877 13.1225 156.577C12.9398 156.448 12.1934 156.179 10.1913 156.006L10.2317 155.54C13.6242 155.832 13.6242 156.372 13.6242 156.575C13.6242 157.713 7.50933 157.746 6.81209 157.746Z" fill="#2F2E41"/>
<path d="M6.81209 170.859C6.11484 170.859 0 170.826 0 169.688C0 168.55 6.11484 168.517 6.81209 168.517V168.986C3.21051 168.986 0.875193 169.388 0.499103 169.688C0.875193 169.989 3.21051 170.391 6.81209 170.391C10.4056 170.391 12.7385 169.99 13.1225 169.69C12.9398 169.562 12.1934 169.292 10.1913 169.119L10.2317 168.653C13.6242 168.945 13.6242 169.485 13.6242 169.688C13.6242 170.826 7.50933 170.859 6.81209 170.859Z" fill="#2F2E41"/>
<path d="M89.6142 87.1455H37.9363C37.5315 87.145 37.1434 86.9845 36.8571 86.6992C36.5709 86.4139 36.4099 86.027 36.4094 85.6234V65.4854C36.4099 65.0819 36.5709 64.695 36.8571 64.4096C37.1434 64.1243 37.5315 63.9638 37.9363 63.9633H89.6142C90.019 63.9638 90.4071 64.1243 90.6933 64.4096C90.9795 64.695 91.1406 65.0818 91.141 65.4854V85.6234C91.1406 86.027 90.9795 86.4139 90.6933 86.6992C90.4071 86.9845 90.019 87.145 89.6142 87.1455Z" fill="white"/>
<path d="M70.3524 70.8711H57.1981C56.8866 70.8711 56.5878 70.7478 56.3676 70.5282C56.1473 70.3086 56.0236 70.0108 56.0236 69.7003C56.0236 69.3898 56.1473 69.092 56.3676 68.8724C56.5878 68.6529 56.8866 68.5295 57.1981 68.5295H70.3524C70.6639 68.5295 70.9627 68.6529 71.1829 68.8724C71.4032 69.092 71.5269 69.3898 71.5269 69.7003C71.5269 70.0108 71.4032 70.3086 71.1829 70.5282C70.9627 70.7478 70.6639 70.8711 70.3524 70.8711H70.3524Z" fill="#6C63FF"/>
<path d="M77.6343 76.7252H49.9162C49.6047 76.7252 49.306 76.6019 49.0857 76.3823C48.8654 76.1627 48.7417 75.8649 48.7417 75.5544C48.7417 75.2439 48.8654 74.9461 49.0857 74.7265C49.306 74.507 49.6047 74.3836 49.9162 74.3836H77.6343C77.9458 74.3836 78.2446 74.507 78.4648 74.7265C78.6851 74.9461 78.8088 75.2439 78.8088 75.5544C78.8088 75.8649 78.6851 76.1627 78.4648 76.3823C78.2446 76.6019 77.9458 76.7252 77.6343 76.7252Z" fill="#6C63FF"/>
<path d="M77.6343 82.5793H49.9162C49.6047 82.5793 49.306 82.456 49.0857 82.2364C48.8654 82.0168 48.7417 81.719 48.7417 81.4085C48.7417 81.098 48.8654 80.8002 49.0857 80.5806C49.306 80.361 49.6047 80.2377 49.9162 80.2377H77.6343C77.9458 80.2377 78.2446 80.361 78.4648 80.5806C78.6851 80.8002 78.8088 81.098 78.8088 81.4085C78.8088 81.719 78.6851 82.0168 78.4648 82.2364C78.2446 82.456 77.9458 82.5793 77.6343 82.5793Z" fill="#6C63FF"/>
<path d="M104.756 68.2489L97.0016 77.0165C103.443 79.7727 109.964 75.9464 112.637 74.0281C121.267 78.8121 131.381 80.0994 140.919 77.6283C150.458 75.1573 158.705 69.1133 163.982 60.7263C169.259 52.3392 171.17 42.2392 169.326 32.4812C167.483 22.7231 162.023 14.0402 154.057 8.19902C146.091 2.35786 136.219 -0.20269 126.448 1.03836C116.677 2.2794 107.742 7.2288 101.461 14.8795C95.1795 22.5303 92.0239 32.3075 92.636 42.222C93.248 52.1365 97.5818 61.4433 104.756 68.2489V68.2489Z" fill="#A49EFF"/>
<path d="M110.393 33.3894C118.392 33.3053 126.39 33.1611 134.389 33.0515C137.056 33.0149 139.723 32.9829 142.389 32.9554C144.687 32.9312 144.693 29.3271 142.389 29.3513C134.39 29.4353 126.392 29.5795 118.393 29.6891C115.726 29.7257 113.059 29.7577 110.393 29.7852C108.095 29.8094 108.089 33.4135 110.393 33.3894Z" fill="white"/>
<path d="M110.393 41.7989L142.723 41.4611L151.918 41.365C154.215 41.3409 154.221 37.7368 151.918 37.7608L119.587 38.0987L110.393 38.1948C108.095 38.2188 108.089 41.823 110.393 41.7989Z" fill="white"/>
<path d="M110.393 50.2085L142.723 49.8706L151.918 49.7745C154.215 49.7505 154.221 46.1463 151.918 46.1704L119.587 46.5083L110.393 46.6044C108.095 46.6284 108.089 50.2326 110.393 50.2085Z" fill="white"/>
<path d="M97.8168 87.8672C99.3725 87.8672 100.634 86.595 100.634 85.0258C100.634 83.4566 99.3725 82.1845 97.8168 82.1845C96.2611 82.1845 95 83.4566 95 85.0258C95 86.595 96.2611 87.8672 97.8168 87.8672Z" fill="white" fill-opacity="0.15"/>
<path d="M230 72.9965C229.997 64.4517 227.21 56.1446 222.07 49.3529C216.929 42.5612 209.719 37.661 201.549 35.406C193.378 33.151 184.699 33.666 176.847 36.872C168.994 40.0779 162.404 45.7971 158.088 53.1499C153.773 60.5028 151.971 69.0822 152.961 77.5684C153.951 86.0547 157.678 93.9779 163.568 100.119C169.457 106.261 177.184 110.281 185.56 111.56C193.935 112.84 202.496 111.309 209.924 107.202C212.597 109.12 219.118 112.947 225.559 110.19L217.805 101.423C221.66 97.7798 224.731 93.3768 226.829 88.487C228.927 83.5971 230.006 78.3246 230 72.9965Z" fill="#6C63FF"/>
<path d="M171.566 66.5632C179.566 66.4792 187.564 66.3349 195.563 66.2253C198.23 66.1887 200.897 66.1567 203.563 66.1292C205.861 66.1051 205.867 62.5009 203.563 62.5251C195.564 62.6091 187.566 62.7533 179.567 62.863C176.9 62.8995 174.233 62.9315 171.566 62.9591C169.269 62.9832 169.263 66.5874 171.566 66.5632Z" fill="white"/>
<path d="M171.566 74.9728L203.897 74.6349L213.091 74.5388C215.389 74.5148 215.395 70.9106 213.091 70.9347L180.761 71.2726L171.566 71.3687C169.269 71.3927 169.263 74.9969 171.566 74.9728V74.9728Z" fill="white"/>
<path d="M171.566 83.3824L203.897 83.0445L213.091 82.9484C215.389 82.9244 215.395 79.3202 213.091 79.3443L180.761 79.6822L171.566 79.7782C169.269 79.8023 169.263 83.4064 171.566 83.3824Z" fill="white"/>
</svg>
